<svg xmlns="http://www.w3.org/2000/svg" xmlns:xlink="http://www.w3.org/1999/xlink" width="202.995" height="75" viewBox="0 0 202.995 75">
  <defs>
    <clipPath id="clip-path">
      <rect id="Rectangle_94" data-name="Rectangle 94" width="202.995" height="75" fill="none"/>
    </clipPath>
    <clipPath id="clip-path-3">
      <rect id="Rectangle_70" data-name="Rectangle 70" width="4.786" height="9.412" fill="none"/>
    </clipPath>
    <clipPath id="clip-path-4">
      <rect id="Rectangle_71" data-name="Rectangle 71" width="5.271" height="9.412" fill="none"/>
    </clipPath>
    <clipPath id="clip-path-5">
      <rect id="Rectangle_72" data-name="Rectangle 72" width="4.598" height="9.412" fill="none"/>
    </clipPath>
    <clipPath id="clip-path-6">
      <rect id="Rectangle_73" data-name="Rectangle 73" width="5.271" height="9.708" fill="none"/>
    </clipPath>
    <clipPath id="clip-path-7">
      <rect id="Rectangle_74" data-name="Rectangle 74" width="5.97" height="9.412" fill="none"/>
    </clipPath>
    <clipPath id="clip-path-8">
      <rect id="Rectangle_75" data-name="Rectangle 75" width="6.346" height="9.667" fill="none"/>
    </clipPath>
    <clipPath id="clip-path-9">
      <rect id="Rectangle_76" data-name="Rectangle 76" width="5.136" height="9.412" fill="none"/>
    </clipPath>
    <clipPath id="clip-path-11">
      <rect id="Rectangle_79" data-name="Rectangle 79" width="1.318" height="9.412" fill="none"/>
    </clipPath>
    <clipPath id="clip-path-12">
      <rect id="Rectangle_80" data-name="Rectangle 80" width="5.486" height="9.708" fill="none"/>
    </clipPath>
    <clipPath id="clip-path-14">
      <rect id="Rectangle_82" data-name="Rectangle 82" width="4.491" height="9.412" fill="none"/>
    </clipPath>
    <clipPath id="clip-path-15">
      <rect id="Rectangle_83" data-name="Rectangle 83" width="5.687" height="9.708" fill="none"/>
    </clipPath>
    <clipPath id="clip-path-16">
      <rect id="Rectangle_84" data-name="Rectangle 84" width="5.297" height="9.412" fill="none"/>
    </clipPath>
    <clipPath id="clip-path-20">
      <rect id="Rectangle_88" data-name="Rectangle 88" width="4.773" height="9.56" fill="none"/>
    </clipPath>
    <clipPath id="clip-path-21">
      <rect id="Rectangle_93" data-name="Rectangle 93" width="58.248" height="75" fill="none"/>
    </clipPath>
    <clipPath id="clip-path-22">
      <rect id="Rectangle_92" data-name="Rectangle 92" width="70.588" height="2.066" fill="none"/>
    </clipPath>
  </defs>
  <g id="Group_205" data-name="Group 205" clip-path="url(#clip-path)">
    <g id="Group_199" data-name="Group 199">
      <g id="Group_198" data-name="Group 198" clip-path="url(#clip-path)">
        <g id="Group_146" data-name="Group 146" transform="translate(64.479 4.233)" opacity="0.72">
          <g id="Group_145" data-name="Group 145">
            <g id="Group_144" data-name="Group 144" clip-path="url(#clip-path-3)">
              <path id="Path_1930" data-name="Path 1930" d="M263.75,18.29h-1.734v8.121H260.7V18.29h-1.734V17h4.787Z" transform="translate(-258.964 -16.999)" fill="#00315d"/>
            </g>
          </g>
        </g>
        <g id="Group_149" data-name="Group 149" transform="translate(71.323 4.233)" opacity="0.72">
          <g id="Group_148" data-name="Group 148">
            <g id="Group_147" data-name="Group 147" clip-path="url(#clip-path-4)">
              <path id="Path_1931" data-name="Path 1931" d="M291.721,26.411H290.4V22.054h-2.635v4.356H286.45V17h1.318v3.765H290.4V17h1.318Z" transform="translate(-286.45 -16.999)" fill="#00315d"/>
            </g>
          </g>
        </g>
        <g id="Group_152" data-name="Group 152" transform="translate(79.148 4.233)" opacity="0.72">
          <g id="Group_151" data-name="Group 151">
            <g id="Group_150" data-name="Group 150" clip-path="url(#clip-path-5)">
              <path id="Path_1932" data-name="Path 1932" d="M322.476,26.411h-4.6V17H322.3v1.278H319.2v2.514h2.03v1.264H319.2v3.079h3.281Z" transform="translate(-317.878 -16.999)" fill="#00315d"/>
            </g>
          </g>
        </g>
        <g id="Group_155" data-name="Group 155" transform="translate(89.097 4.085)" opacity="0.72">
          <g id="Group_154" data-name="Group 154">
            <g id="Group_153" data-name="Group 153" clip-path="url(#clip-path-6)">
              <path id="Path_1933" data-name="Path 1933" d="M363.107,23.733c-.3,1.412-.955,2.38-2.5,2.38-2.03,0-2.77-2.165-2.77-4.841,0-2.729.82-4.867,2.81-4.867,1.573,0,2.219.955,2.447,2.3l-1.331.336c-.175-.847-.43-1.3-1.156-1.3-1.143,0-1.412,1.855-1.412,3.509,0,1.734.363,3.536,1.506,3.536.632,0,.928-.43,1.183-1.439Z" transform="translate(-357.836 -16.405)" fill="#00315d"/>
            </g>
          </g>
        </g>
        <g id="Group_158" data-name="Group 158" transform="translate(95.846 4.233)" opacity="0.72">
          <g id="Group_157" data-name="Group 157">
            <g id="Group_156" data-name="Group 156" clip-path="url(#clip-path-7)">
              <path id="Path_1934" data-name="Path 1934" d="M390.914,26.411h-1.439l-.551-2.487H386.88l-.538,2.487h-1.4L387.257,17h1.358Zm-2.259-3.738-.349-1.587c-.134-.618-.336-1.708-.4-2.057-.067.349-.269,1.425-.4,2.057l-.35,1.587Z" transform="translate(-384.944 -16.999)" fill="#00315d"/>
            </g>
          </g>
        </g>
        <g id="Group_161" data-name="Group 161" transform="translate(103.766 4.233)" opacity="0.72">
          <g id="Group_160" data-name="Group 160">
            <g id="Group_159" data-name="Group 159" clip-path="url(#clip-path-8)">
              <path id="Path_1935" data-name="Path 1935" d="M423.1,26.411h-1.291V22.619c0-.592.014-1.963.027-2.326-.108.376-.511,1.748-.726,2.434l-1.21,3.939-1.21-3.939c-.215-.686-.618-2.057-.726-2.434.014.363.027,1.734.027,2.326v3.792H416.75V17h1.385l1.21,3.913c.175.565.5,1.721.578,2.057.094-.35.417-1.546.592-2.1L421.725,17H423.1Z" transform="translate(-416.75 -16.999)" fill="#00315d"/>
            </g>
          </g>
        </g>
        <g id="Group_164" data-name="Group 164" transform="translate(112.667 4.233)" opacity="0.72">
          <g id="Group_163" data-name="Group 163">
            <g id="Group_162" data-name="Group 162" clip-path="url(#clip-path-9)">
              <path id="Path_1936" data-name="Path 1936" d="M457.634,19.742a2.62,2.62,0,0,1-2.716,2.837h-1.1v3.832H452.5V17h2.487a2.518,2.518,0,0,1,2.649,2.743m-1.358.04a1.317,1.317,0,0,0-1.385-1.492h-1.076V21.3h1.116c.766,0,1.344-.5,1.344-1.519" transform="translate(-452.498 -16.999)" fill="#00315d"/>
            </g>
          </g>
        </g>
        <g id="Group_167" data-name="Group 167" transform="translate(118.489 4.233)" opacity="0.72">
          <g id="Group_166" data-name="Group 166">
            <g id="Group_165" data-name="Group 165" clip-path="url(#clip-path-7)">
              <path id="Path_1937" data-name="Path 1937" d="M481.85,26.411h-1.439l-.551-2.487h-2.044l-.538,2.487h-1.4L478.193,17h1.358Zm-2.259-3.738-.349-1.587c-.134-.618-.336-1.708-.4-2.057-.068.349-.269,1.425-.4,2.057l-.35,1.587Z" transform="translate(-475.88 -16.999)" fill="#00315d"/>
            </g>
          </g>
        </g>
        <g id="Group_170" data-name="Group 170" transform="translate(126.475 4.233)" opacity="0.72">
          <g id="Group_169" data-name="Group 169">
            <g id="Group_168" data-name="Group 168" clip-path="url(#clip-path-11)">
              <rect id="Rectangle_78" data-name="Rectangle 78" width="1.318" height="9.412" transform="translate(0)" fill="#00315d"/>
            </g>
          </g>
        </g>
        <g id="Group_173" data-name="Group 173" transform="translate(130.078 4.085)" opacity="0.72">
          <g id="Group_172" data-name="Group 172">
            <g id="Group_171" data-name="Group 171" clip-path="url(#clip-path-12)">
              <path id="Path_1938" data-name="Path 1938" d="M527.912,23.208c0,1.587-.753,2.9-2.649,2.9-2,0-2.837-2.165-2.837-4.854,0-2.837.914-4.854,2.877-4.854a2.4,2.4,0,0,1,2.514,2.3l-1.318.35c-.215-.968-.564-1.318-1.237-1.318-1.035,0-1.479,1.506-1.479,3.523,0,1.6.336,3.523,1.573,3.523.888,0,1.21-.538,1.21-1.694v-.672h-1.049V21.124h2.393Z" transform="translate(-522.426 -16.405)" fill="#00315d"/>
            </g>
          </g>
        </g>
        <g id="Group_176" data-name="Group 176" transform="translate(137.957 4.233)" opacity="0.72">
          <g id="Group_175" data-name="Group 175">
            <g id="Group_174" data-name="Group 174" clip-path="url(#clip-path-4)">
              <path id="Path_1939" data-name="Path 1939" d="M559.341,26.411h-1.076l-2.272-5.042c-.188-.4-.538-1.277-.659-1.546.013.35.027,1.425.027,1.882v4.706H554.07V17h1.318l2.03,4.478c.188.4.538,1.277.659,1.546-.014-.35-.027-1.425-.027-1.882V17h1.291Z" transform="translate(-554.07 -16.999)" fill="#00315d"/>
            </g>
          </g>
        </g>
        <g id="Group_179" data-name="Group 179" transform="translate(149.412 4.233)" opacity="0.72">
          <g id="Group_178" data-name="Group 178">
            <g id="Group_177" data-name="Group 177" clip-path="url(#clip-path-14)">
              <path id="Path_1940" data-name="Path 1940" d="M604.568,18.276H601.4v2.582h2.03v1.264H601.4v4.289h-1.318V17h4.491Z" transform="translate(-600.077 -16.999)" fill="#00315d"/>
            </g>
          </g>
        </g>
        <g id="Group_182" data-name="Group 182" transform="translate(155.207 4.085)" opacity="0.72">
          <g id="Group_181" data-name="Group 181">
            <g id="Group_180" data-name="Group 180" clip-path="url(#clip-path-15)">
              <path id="Path_1941" data-name="Path 1941" d="M629.038,21.245c0,2.729-.874,4.867-2.864,4.867s-2.824-2.111-2.824-4.84.847-4.867,2.837-4.867,2.85,2.111,2.85,4.84m-1.345.027c0-1.748-.39-3.55-1.533-3.55S624.7,19.5,624.7,21.245s.377,3.55,1.52,3.55,1.479-1.775,1.479-3.523" transform="translate(-623.351 -16.405)" fill="#00315d"/>
            </g>
          </g>
        </g>
        <g id="Group_185" data-name="Group 185" transform="translate(163.113 4.233)" opacity="0.72">
          <g id="Group_184" data-name="Group 184">
            <g id="Group_183" data-name="Group 183" clip-path="url(#clip-path-16)">
              <path id="Path_1942" data-name="Path 1942" d="M660.4,26.411h-1.466l-1.425-4.1H656.42v4.1H655.1V17h2.649a2.412,2.412,0,0,1,2.622,2.608,2.385,2.385,0,0,1-1.479,2.474Zm-1.385-6.763a1.239,1.239,0,0,0-1.371-1.371H656.42v2.77h1.224a1.231,1.231,0,0,0,1.371-1.4" transform="translate(-655.102 -16.999)" fill="#00315d"/>
            </g>
          </g>
        </g>
        <g id="Group_188" data-name="Group 188" transform="translate(173.775 4.233)" opacity="0.72">
          <g id="Group_187" data-name="Group 187">
            <g id="Group_186" data-name="Group 186" clip-path="url(#clip-path-3)">
              <path id="Path_1943" data-name="Path 1943" d="M702.71,18.29h-1.734v8.121h-1.318V18.29h-1.734V17h4.787Z" transform="translate(-697.924 -16.999)" fill="#00315d"/>
            </g>
          </g>
        </g>
        <g id="Group_191" data-name="Group 191" transform="translate(179.879 4.085)" opacity="0.72">
          <g id="Group_190" data-name="Group 190">
            <g id="Group_189" data-name="Group 189" clip-path="url(#clip-path-6)">
              <path id="Path_1944" data-name="Path 1944" d="M727.71,23.733c-.3,1.412-.955,2.38-2.5,2.38-2.03,0-2.77-2.165-2.77-4.841,0-2.729.82-4.867,2.81-4.867,1.573,0,2.219.955,2.447,2.3l-1.331.336c-.175-.847-.43-1.3-1.156-1.3-1.143,0-1.412,1.855-1.412,3.509,0,1.734.363,3.536,1.506,3.536.632,0,.928-.43,1.183-1.439Z" transform="translate(-722.439 -16.405)" fill="#00315d"/>
            </g>
          </g>
        </g>
        <g id="Group_194" data-name="Group 194" transform="translate(187.341 4.233)" opacity="0.72">
          <g id="Group_193" data-name="Group 193">
            <g id="Group_192" data-name="Group 192" clip-path="url(#clip-path-4)">
              <path id="Path_1945" data-name="Path 1945" d="M757.68,26.411H756.6l-2.272-5.042c-.188-.4-.538-1.277-.659-1.546.013.35.027,1.425.027,1.882v4.706h-1.291V17h1.318l2.03,4.478c.188.4.538,1.277.659,1.546-.013-.35-.027-1.425-.027-1.882V17h1.291Z" transform="translate(-752.409 -16.999)" fill="#00315d"/>
            </g>
          </g>
        </g>
        <g id="Group_197" data-name="Group 197" transform="translate(194.44 4.233)" opacity="0.72">
          <g id="Group_196" data-name="Group 196">
            <g id="Group_195" data-name="Group 195" clip-path="url(#clip-path-20)">
              <path id="Path_1946" data-name="Path 1946" d="M785.694,23.722c0,1.8-.78,2.837-2.393,2.837-1.587,0-2.192-1.009-2.38-2.434l1.2-.309c.2,1.049.511,1.439,1.183,1.439.82,0,1.076-.592,1.076-1.492V17h1.318Z" transform="translate(-780.921 -16.999)" fill="#00315d"/>
            </g>
          </g>
        </g>
        <path id="Path_1947" data-name="Path 1947" d="M255.7,97.617v-.756h2.062V74.6H255.7V73.84h17.455v7.628H272.4c-1.855-6.426-2.405-6.872-4.123-6.872h-6.8V84.9h2.68c1.718,0,2.543-1.065,3.23-4.742h.756V90.4h-.756c-.687-3.677-1.512-4.742-3.23-4.742h-2.68v11.2h6.047c2.44,0,3.161-.928,5.188-8.04h.756v8.8Z" transform="translate(-192.031 -55.455)" fill="#00315d"/>
        <path id="Path_1948" data-name="Path 1948" d="M339.924,96.861h1.649v.756h-6.529v-.756h1.649V74.6h-1.649V73.84h4.879Z" transform="translate(-251.623 -55.454)" fill="#00315d"/>
        <path id="Path_1949" data-name="Path 1949" d="M368.736,104.651c-.034.344-.034.687-.034,1.031,0,6.632,1.649,8.934,4.261,8.934,2.921,0,5.017-1.855,5.36-6.116h.756c-.172,4.742-2.955,7.078-6.46,7.078-4.364,0-7.491-3.78-7.491-9.277s3.333-9.278,7.388-9.278c3.917,0,6.425,2.749,6.425,7.628Zm6.632-.756v-1.34c0-3.436-1.134-4.776-2.921-4.776-2.13,0-3.4,2.13-3.677,6.116Z" transform="translate(-274.215 -72.865)" fill="#00315d"/>
        <path id="Path_1950" data-name="Path 1950" d="M418.811,99.231H426.3v.756h-2.68l4.57,12.92,4.639-12.92h-2.749v-.756h5.154v.756h-1.409l-6.082,16.837h-1.409L420.22,99.987h-1.409Z" transform="translate(-314.532 -74.524)" fill="#00315d"/>
        <path id="Path_1951" data-name="Path 1951" d="M483.662,103.827V98.261a13.817,13.817,0,0,1,5.257-1.237c4.3,0,6.219,2.268,6.219,4.4v12.851h1.65v.756h-4.673v-3.161a5.663,5.663,0,0,1-5.291,3.711c-3.092,0-5.223-1.787-5.223-4.776,0-6.013,7.078-4.261,10.514-6.357v-3.608c0-2.165-1.168-3.058-2.989-3.058-2.405,0-3.058,1.237-4.707,6.047Zm8.453,1.512c-3.883,1.821-7.078.515-7.078,5.463,0,2.577.962,3.539,2.783,3.539,2.577,0,4.3-2.611,4.3-6.391Z" transform="translate(-361.687 -72.866)" fill="#00315d"/>
        <path id="Path_1952" data-name="Path 1952" d="M542.734,86.794H544.9V82.671h3.23v4.123h3.986v.756h-3.986v14.157c0,1.306.55,1.855,1.855,1.855,1.477,0,2.337-.894,2.337-3.436V97.377h.756V99.92c0,3.642-1.512,4.879-4.329,4.879-2.474,0-3.848-1.306-3.848-4.123V87.55h-2.165Z" transform="translate(-407.6 -62.087)" fill="#00315d"/>
        <path id="Path_1953" data-name="Path 1953" d="M591.358,98.311h1.649v.756h-6.528v-.756h1.649V82.368h-1.649v-.756h4.879Zm-1.615-22.54a1.959,1.959,0,1,1-1.958,1.959,1.9,1.9,0,0,1,1.958-1.959" transform="translate(-440.453 -56.905)" fill="#00315d"/>
        <path id="Path_1954" data-name="Path 1954" d="M618.081,97.573h4.81v2.405a5.564,5.564,0,0,1,4.914-2.955c2.714,0,4.639,1.306,4.639,5.051v12.2H634.3v.756h-7.078v-.756h1.993v-12.61c0-2.543-.79-3.4-2.405-3.4-1.89,0-3.642,1.649-3.642,5.223v10.789h1.993v.756h-7.078v-.756h1.855V98.329h-1.855Z" transform="translate(-464.186 -72.865)" fill="#00315d"/>
        <path id="Path_1955" data-name="Path 1955" d="M700.953,98.536h-2.714a5.428,5.428,0,0,1,1.959,4.3,5.813,5.813,0,0,1-6.116,5.807c-3.23,0-3.779-1.237-4.261-1.237a2.565,2.565,0,0,0-2.405,2.2c0,2.13,2.336,2.337,5.051,2.337h2.028c3.367,0,6.8.275,6.8,4.089,0,2.783-2.955,5.532-7.491,5.532-5.154,0-7.422-2.268-7.422-4.123,0-1.271,1.237-2.2,2.268-2.577a3.836,3.836,0,0,1-3.092-3.883,4.327,4.327,0,0,1,3.573-4.329,6.052,6.052,0,0,1-1.306-3.986c0-3.3,2.68-5.635,6.185-5.635a6.708,6.708,0,0,1,2.714.55h4.226ZM693.532,120.8c3.573,0,5.91-1.787,5.91-3.573,0-1.271-.55-1.855-3.127-1.959l-6.494-.241a2.875,2.875,0,0,0-1.237,2.508c0,1.546,1.855,3.264,4.948,3.264m.481-12.92c1.787,0,2.749-1.031,2.749-5.051s-.962-5.051-2.749-5.051-2.749,1.031-2.749,5.051.687,5.051,2.749,5.051" transform="translate(-514.864 -72.866)" fill="#00315d"/>
        <path id="Path_1956" data-name="Path 1956" d="M255.7,215.617v-.756h2.062V192.6H255.7v-.756h17.455v7.628H272.4c-1.855-6.426-2.405-6.872-4.123-6.872h-6.8V202.9h2.68c1.718,0,2.543-1.065,3.23-4.742h.756V208.4h-.756c-.687-3.677-1.512-4.742-3.23-4.742h-2.68v11.2h6.047c2.44,0,3.161-.928,5.188-8.04h.756v8.8Z" transform="translate(-192.031 -144.074)" fill="#00315d"/>
        <path id="Path_1957" data-name="Path 1957" d="M331.661,217.231h7.7v.756h-2.405l3.436,5.773,4.123-5.773h-2.268v-.756h4.742v.756h-1.443l-4.673,6.528,5.635,9.415h1.237v.756h-7.7v-.756h2.611l-3.986-6.734-4.81,6.734h2.817v.756h-5.5v-.756h1.649l5.36-7.559-5.017-8.384h-1.512Z" transform="translate(-248.72 -163.143)" fill="#00315d"/>
        <path id="Path_1958" data-name="Path 1958" d="M408.132,222.376h-.962c-1.649-6.047-2.405-6.6-4.192-6.6-2.131,0-4.33,2.13-4.33,8.178,0,6.322,1.649,8.659,4.467,8.659,2.646,0,4.364-1.89,4.467-6.047h.756c-.034,4.845-2.474,7.01-5.7,7.01-4.6,0-7.559-3.78-7.559-9.277s3.127-9.277,8.315-9.277a15.583,15.583,0,0,1,4.742,1.1Z" transform="translate(-296.706 -161.485)" fill="#00315d"/>
        <path id="Path_1959" data-name="Path 1959" d="M457.332,222.651c-.034.344-.034.687-.034,1.031,0,6.632,1.649,8.934,4.261,8.934,2.921,0,5.017-1.855,5.36-6.116h.756c-.172,4.742-2.955,7.078-6.46,7.078-4.364,0-7.491-3.78-7.491-9.277s3.333-9.278,7.388-9.278c3.917,0,6.425,2.749,6.425,7.628Zm6.632-.756v-1.34c0-3.436-1.134-4.776-2.921-4.776-2.13,0-3.4,2.13-3.677,6.116Z" transform="translate(-340.752 -161.485)" fill="#00315d"/>
        <path id="Path_1960" data-name="Path 1960" d="M519.874,214.861h1.649v.756H515v-.756h1.649V192.6H515v-.756h4.879Z" transform="translate(-386.767 -144.074)" fill="#00315d"/>
        <path id="Path_1961" data-name="Path 1961" d="M549.544,214.861h1.649v.756h-6.529v-.756h1.649V192.6h-1.649v-.756h4.879Z" transform="translate(-409.05 -144.074)" fill="#00315d"/>
        <path id="Path_1962" data-name="Path 1962" d="M578.357,222.651a10.313,10.313,0,0,0-.034,1.031c0,6.632,1.649,8.934,4.261,8.934,2.92,0,5.016-1.855,5.36-6.116h.756c-.172,4.742-2.955,7.078-6.46,7.078-4.364,0-7.491-3.78-7.491-9.277s3.333-9.278,7.388-9.278c3.917,0,6.425,2.749,6.425,7.628Zm6.631-.756v-1.34c0-3.436-1.134-4.776-2.921-4.776-2.13,0-3.4,2.13-3.676,6.116Z" transform="translate(-431.643 -161.485)" fill="#00315d"/>
        <path id="Path_1963" data-name="Path 1963" d="M633.813,215.573h4.81v2.405a5.564,5.564,0,0,1,4.914-2.955c2.714,0,4.639,1.306,4.639,5.051v12.2h1.855v.756h-7.078v-.756h1.993v-12.61c0-2.543-.79-3.4-2.405-3.4-1.89,0-3.642,1.649-3.642,5.223v10.789h1.993v.756h-7.078v-.756h1.855V216.329h-1.855Z" transform="translate(-476.001 -161.485)" fill="#00315d"/>
        <path id="Path_1964" data-name="Path 1964" d="M715.041,222.376h-.962c-1.649-6.047-2.405-6.6-4.192-6.6-2.131,0-4.33,2.13-4.33,8.178,0,6.322,1.649,8.659,4.467,8.659,2.646,0,4.364-1.89,4.467-6.047h.756c-.034,4.845-2.474,7.01-5.7,7.01-4.6,0-7.559-3.78-7.559-9.277s3.127-9.277,8.315-9.277a15.585,15.585,0,0,1,4.742,1.1Z" transform="translate(-527.198 -161.485)" fill="#00315d"/>
        <path id="Path_1965" data-name="Path 1965" d="M762.861,222.651c-.034.344-.034.687-.034,1.031,0,6.632,1.649,8.934,4.261,8.934,2.921,0,5.017-1.855,5.36-6.116h.756c-.172,4.742-2.955,7.078-6.46,7.078-4.364,0-7.491-3.78-7.491-9.277s3.333-9.278,7.387-9.278c3.917,0,6.425,2.749,6.425,7.628Zm6.632-.756v-1.34c0-3.436-1.134-4.776-2.921-4.776-2.13,0-3.4,2.13-3.677,6.116Z" transform="translate(-570.208 -161.485)" fill="#00315d"/>
      </g>
    </g>
    <g id="Group_204" data-name="Group 204" transform="translate(0 0)">
      <g id="Group_203" data-name="Group 203" clip-path="url(#clip-path-21)">
        <rect id="Rectangle_90" data-name="Rectangle 90" width="58.248" height="72.934" transform="translate(0 0)" fill="#002f5f"/>
        <path id="Path_1966" data-name="Path 1966" d="M353.259,173.807c-2.125-.836-3.049-2.951-3.943-5-1.061-2.429-2.158-4.941-5.265-4.941a16.758,16.758,0,0,0-6.691,1.528c-.827.32-1.681.654-2.668.973a.525.525,0,0,0,.325,1c1.014-.329,1.883-.668,2.723-.994,2.092-.813,3.82-2.079,6.386-2.079,2.421,0,3.219,2.622,4.23,4.934.933,2.139,1.992,4.561,4.52,5.556a.515.515,0,0,0,.192.036.524.524,0,0,0,.192-1.012" transform="translate(-251.085 -123.067)" fill="#fff"/>
        <path id="Path_1967" data-name="Path 1967" d="M250.6,176.683c-.256-.043-1.953,4.3-2.673,5.519-.572.11-1.18.212-1.8.305.845-1.363,1.588-5.213,1.329-5.257s-1.878,3.986-2.671,5.444c-.632.081-1.259.154-1.856.219.773-1.608,1.417-5.053,1.177-5.094s-1.776,3.716-2.583,5.236c-1.512.142-2.616.213-2.735.213l-1.4,1.136c9.612-.306,13.37-2.971,13.37-2.971a9.744,9.744,0,0,1-1.465.47c.836-1.392,1.563-5.176,1.306-5.22" transform="translate(-178.278 -132.691)" fill="#fff"/>
        <path id="Path_1968" data-name="Path 1968" d="M334.3,201.864l-.553.548c-2.048,2.024-3.666,3.622-3.666,6.718a3.389,3.389,0,0,0,.817,2.269.524.524,0,1,0,.825-.648,2.34,2.34,0,0,1-.594-1.621A8.537,8.537,0,0,1,334,202.607q.273-.27.557-.552c.2-.205-.057-.4-.262-.191" transform="translate(-247.891 -151.537)" fill="#fff"/>
        <path id="Path_1969" data-name="Path 1969" d="M441.115,181.874c-3.731-.6-10.15-6.955-10.355-6.751s1.055,1.824,1.548,2.34c2.446,2.57,4.56,4.79,8.639,5.445a.617.617,0,0,0,.084.006.524.524,0,0,0,.083-1.042" transform="translate(-323.489 -131.516)" fill="#fff"/>
        <path id="Path_1970" data-name="Path 1970" d="M476.771,210.957c-.258.13,2.718,6.6,2.718,10.371a.525.525,0,0,0,1.049,0c0-4.019-3.509-10.5-3.767-10.371" transform="translate(-358.049 -158.43)" fill="#fff"/>
        <path id="Path_1971" data-name="Path 1971" d="M160.8,183.571c-.578,3.47-3.4,4.687-6.674,6.1-.44.19-.887.383-1.335.584-.47.212-.92.412-1.353.6-3.332,1.48-5.74,2.549-8.706,5.516a.524.524,0,1,0,.742.741c2.827-2.829,5.04-3.811,8.39-5.3.434-.192.885-.393,1.357-.607.442-.2.884-.389,1.32-.577,3.4-1.468,5.961-2.933,6.632-6.966.048-.286-.327-.381-.374-.094" transform="translate(-107.08 -137.734)" fill="#fff"/>
        <path id="Path_1972" data-name="Path 1972" d="M160.374,48.25a2.4,2.4,0,0,0-2.812.889c-.03.006-.059.007-.088.013l-.154.217-.093.207c-.09.126-.18.257-.272.4.04-.022.08-.042.12-.062l-.061.136s1.418,1.145,2,.084c.154-.285.389-.64-.035-.83a2.3,2.3,0,0,0-.795-.2c.592-1.136,2.191-.85,2.191-.85" transform="translate(-117.875 -36.137)" fill="#fff"/>
        <path id="Path_1973" data-name="Path 1973" d="M155.747,69.408l.051-.006a13.577,13.577,0,0,0-2.777-4.874c1.307.678,3.572,2.277,3.712,2.233a.258.258,0,0,0,.033-.013,36.7,36.7,0,0,0-3.9-2.954c.077.009,4.479,1.158,4.6,1.111a.343.343,0,0,0,.134-.094,36.89,36.89,0,0,0-4.858-1.714c-.193.034-1.013,1.355-.839,1.447,1.6.842,3.646,4.876,3.841,4.866" transform="translate(-114.065 -47.386)" fill="#fff"/>
        <path id="Path_1974" data-name="Path 1974" d="M188.939,53.283a11.324,11.324,0,0,0-.5-5.013,12.476,12.476,0,0,0-3.029-3.437c.4,1.094,1.073,3.291,1.45,4.149.592,1.348,1.663,2.39,1.594,4.138-.079,1.97-1.879,2.928-3.206,4.456-.2.236-7.616,5.084-6.528,11.384.546,3.162,1.905,4.309,3.05,5,.344.209.221-.089.044-.2-.4-.239-1.587-1.9-.888-5.046a27.591,27.591,0,0,1,5.032-10.37c1.1-1.47,2.89-2.659,2.986-5.064" transform="translate(-134.135 -33.667)" fill="#fff"/>
        <path id="Path_1975" data-name="Path 1975" d="M161.373,72.034a.524.524,0,0,0-.461-.942,21.28,21.28,0,0,0-10.175,13.775c-.07.281.332.307.392.069a19.828,19.828,0,0,1,10.244-12.9" transform="translate(-113.199 -53.351)" fill="#fff"/>
        <path id="Path_1976" data-name="Path 1976" d="M197.185,67.79a.706.706,0,0,0,.171,0,1.145,1.145,0,0,0-.171,0" transform="translate(-148.088 -50.909)" fill="#fff"/>
        <path id="Path_1977" data-name="Path 1977" d="M164.659,76.4A41.087,41.087,0,0,0,168.444,73c1.555-1.634,2.171-3.082,1.832-4.305-.37-1.338-1.805-1.081-2.348-1.038.43.021,1.508.191,1.338,1.318-.128.852-4.727,4.561-5.948,5.57a13.9,13.9,0,0,0-5.211,9.632c-.416,4.071.385,6.372,2.382,6.84a.53.53,0,0,0,.12.014c-4.632-4.942,1.293-12.348,4.05-14.624" transform="translate(-118.66 -50.773)" fill="#fff"/>
        <path id="Path_1978" data-name="Path 1978" d="M201.786,110.079c.1.163.4.343.251.1-3.364-5.541,4.335-14.313,4.406-14.394a.524.524,0,1,0-.787-.693c-.313.356-7.635,8.792-3.871,14.991" transform="translate(-150.737 -71.279)" fill="#fff"/>
        <path id="Path_1979" data-name="Path 1979" d="M147.872,38.836c.289.02.511.249.529-.039a.524.524,0,0,0-.489-.557c-4.375-.288-6.85,1.124-7.5,1.791,0,0-3.233,1.26-3.176,1.544,0,.018,3.117-.436,3.809.1a8.658,8.658,0,0,1,6.824-2.837" transform="translate(-103.068 -28.69)" fill="#fff"/>
        <path id="Path_1980" data-name="Path 1980" d="M186.021,39.77a1.842,1.842,0,0,1,1.922.564c1.023,1.576.265,4.052-2.244,3.046a2.721,2.721,0,0,0,1.606.569c.932,0,3-1.427,1.5-4.208a2.727,2.727,0,0,0-3.053-.986.525.525,0,0,0,.266,1.015" transform="translate(-139.211 -29.026)" fill="#fff"/>
        <path id="Path_1981" data-name="Path 1981" d="M134.168,76.635c-.37-1.088-.752-2.213-.883-2.736a20.459,20.459,0,0,0-.76-2.132,25.905,25.905,0,0,1-1.7-5.544.881.881,0,0,0-.253-.515,5.828,5.828,0,0,0-2.725-1.3c-3.992-.913-8.168-4.592-8.983-6.138-2.362-4.215-2.885-5.251-6.057-7.365-.547-.364-1.144-.763-1.815-1.223a1.928,1.928,0,0,1-.487-.51c7.41-.147,12.9-2.178,15.54-5.777a7.426,7.426,0,0,0,1.207-7.048c-3.976-10.88-35.841,4.908-42.716,2.286-1.34-1.806-3.087-4.894-5.767-6-3.265-1.349-4.7-.857-4.7-.857-1.811-.858-4.267.158-4.267.158a3.5,3.5,0,0,0,.961,4.224,3.524,3.524,0,0,0,.816,3.03c9.7,10.4,45.76-7.37,46.543-.269a2.006,2.006,0,0,1-.42,1.608c-.834,1.024-3.621,3.866-12.408,3.936-2.732-1.074-6.514-1.08-10.59.1a37.174,37.174,0,0,1-8.5,1.788,33.056,33.056,0,0,1-17.279-3.894c.285-3.1.43-9.588-2.327-14.192-3.472-5.795-8.554-6.127-11.684-5.918a3.891,3.891,0,0,0-2.589,1.782c-.96-.1-3.1-.627-4.369-.058a8.17,8.17,0,0,0-2.564,2.273c-7.066-.91-7.812-.664-8.029-.412a2.293,2.293,0,0,0-.413,2.118l.52,1.148-.7,1.672c-.3,1.015-.287,2.333.728,2.769a1.877,1.877,0,0,0,.636.13,3.053,3.053,0,0,0,.855,1.294l.214-1.256c.179.667,1.057,0,1.057,0a3.121,3.121,0,0,0,.844,1.256l.214-1.256c.18.667,1.057,0,1.057,0a3.12,3.12,0,0,0,.843,1.256l.214-1.256c.056.207.189.219.346.137A4.391,4.391,0,0,1,44.4,35.9c-2.606-.215-6.237-.346-6.987.508-1.036,1.183-.364,5.373-.164,5.462a.663.663,0,0,0,.621-.028,6.612,6.612,0,0,1,4.44-.478c.2.029.589.061,1.073.079a23.7,23.7,0,0,0-1.8,6.444,15.67,15.67,0,0,1-3.694.6c-2.368-.241-3.89-1.193-4.859-.938a19.436,19.436,0,0,1-5.045-1.625,19.464,19.464,0,0,0-9.111-7.271L15.494,37.8a.939.939,0,0,0-.141-.02l-1.385-.36-.152.225.819.455a2.5,2.5,0,0,0-.047.276,9.114,9.114,0,0,0-.433,1.947l-1.395-.579-.139.26.678.464a1.157,1.157,0,0,0-.255.647,6.121,6.121,0,0,0,.043,2.522L13,43.69l-.694-.222-.119.237.534.419a1.519,1.519,0,0,0,.15.692,3.216,3.216,0,0,0,1.952,1.864c1.189.432,3.032.585,3.233.786a6.492,6.492,0,0,0,4.183,1.974c.447,1.092,1.139,2.526,1.175,2.6a.889.889,0,0,0,.379.395c.1.054,2.486,1.329,3.025,1.6a36.258,36.258,0,0,1,3.919,2.736.874.874,0,0,0,.278.147l14.007,4.442a8.4,8.4,0,0,0,3.1,2.67L38.108,73.288a.932.932,0,0,0-.237.362c-.033.1-.856,2.338-4.287,4.071-1.758.633-2.447.53-2.979.26-.087-.049-.172-.1-.256-.152-.155-.1-.324-.2-.516-.3a3.318,3.318,0,0,0-1.293-.407.865.865,0,0,0-.367.042,5.826,5.826,0,0,0-3.179,3.174,4.264,4.264,0,0,0,.375,3.73,1.837,1.837,0,0,0,.846.83,2.164,2.164,0,0,0,1.623.18,4.265,4.265,0,0,0,3.687.283,6.413,6.413,0,0,0,2.242.587,2.936,2.936,0,0,0,1.488-.463,8.943,8.943,0,0,1,3.668-1.071.884.884,0,0,0,.769-.809,3.164,3.164,0,0,1,1.081-2.37,4.5,4.5,0,0,1,3.036-.715.881.881,0,0,0,.766-.26,27.781,27.781,0,0,1,9.585-6.155c.9-.349,1.734-.693,2.51-1.033a38.719,38.719,0,0,0,4.18-1.728c5.3,2.291,14.139.441,25.087-4.57.02,0,.039.008.06.008a.819.819,0,0,0,.162-.018,21.508,21.508,0,0,1,1,6.817c0,.292-.132.412-1.127.766a4.61,4.61,0,0,0-2.218,1.337,7.912,7.912,0,0,1-5.286,2.646,2.723,2.723,0,0,1-2.213-.752.882.882,0,0,0-.811-.269,6.1,6.1,0,0,0-4.568,2.876,4.573,4.573,0,0,0-.389,3.6,1.613,1.613,0,0,0,.748.772,2.889,2.889,0,0,0,2.051.24l.059.047c.689.546,1.433.779,2.907.257,1.745.777,4.138.069,5.47-.324l.315-.093a.887.887,0,0,0,.548-.455,4.271,4.271,0,0,1,1.78-1.638,7.311,7.311,0,0,0,.829-.558c1.128-.954,4.01-3.441,5.184-3.376a7.487,7.487,0,0,0,4.872-1.037.877.877,0,0,0,.157-.566c-.056-.848-.06-3.3.591-4.449a12.576,12.576,0,0,1,4.014-4.022c.785-.57,1.3-1.951,2.112-2.755.1.114.2.228.312.342a.889.889,0,0,0,.156.122,10.788,10.788,0,0,0,.86,1.369.89.89,0,0,0,.314.2l1.14.43c1.3,1.907,3.11,2.457,5.02,3.038.268.081.543.165.823.254a30.921,30.921,0,0,0,4.519.618c2.27.233,5.094.522,7.383.952,3.554.667,3.9,1.328,3.905,1.345.061.245.141.5.22.769.263.859.533,1.749.187,2.324a3.54,3.54,0,0,1-2.366,1.128c-.287.058-.527-.056-.96-.276a2.968,2.968,0,0,0-2.176-.4,4.927,4.927,0,0,0-3.044,2.582,3.8,3.8,0,0,0-.124,3.253.858.858,0,0,0,.182.266.8.8,0,0,1,.082.16c.445,1.008,1.19,1.286,3.017,1.093a5.457,5.457,0,0,0,3.7.185c.105.006.241.024.374.041a4.213,4.213,0,0,0,1.617-.019,2.077,2.077,0,0,0,1.255-1,1.09,1.09,0,0,1,.239-.3l.039-.019c.253-.136.9-.085,1.221-.553.909-1.347,4.491-3.01,4.986-3.562.408-.454-.5-2.368-.894-3.542M42.512,55.258c.059.123.122.244.186.364a2.549,2.549,0,0,1-.525-1.156c.09.239.19.474.3.706-.084-.164-.164-.328-.235-.492a3.318,3.318,0,0,0,.275.578M35.5,49.222c-.387-.015-.748-.03-1.07-.045.321,0,.685.019,1.07.045M98.76,67.358a13.613,13.613,0,0,0-4.235,4.373,11.041,11.041,0,0,0-.839,5.08,3.71,3.71,0,0,1-2.932,1.019c-1.846-.12-5.4,1.808-6.629,2.849a6.186,6.186,0,0,1-.621.408,6.235,6.235,0,0,0-2.245,2.007c-1.034.306-3.089.908-4.221.4a1.872,1.872,0,0,1,.4-.351.524.524,0,0,0-.528-.906,2.384,2.384,0,0,0-1,1.136c-1.014.4-1.2.249-1.4.092a2.7,2.7,0,0,0-.421-.283,1.63,1.63,0,0,1,.45-.491.524.524,0,1,0-.563-.885,2.7,2.7,0,0,0-.993,1.267,1.162,1.162,0,0,1-.817-.052,2.983,2.983,0,0,1,.326-1.981,4.223,4.223,0,0,1,2.911-1.9c.822.679,1.67.006,2.954-.041,2.378-.09,5.4-.484,6.85-2.315a3.161,3.161,0,0,1,1.424-.768c.917-.326,2.3-.82,2.3-2.432,0-2.226-1.414-5.547-2.132-7.09.169-.082.338-.165.51-.251a12.65,12.65,0,0,0,1.758,1.437,5.6,5.6,0,0,0-1.178-1.734q.437-.224.88-.458a19.671,19.671,0,0,0,2.1,1.743,6.154,6.154,0,0,0-1.519-2.051l.764-.4c.607.424,2.338,2.123,2.459,2.049a5.769,5.769,0,0,0-1.927-2.317l-.017,0c.7-.367,1.415-.728,2.13-1.07,5.1.047,6.451,2.108,6,3.922m1.444-6.03h.006a.61.61,0,0,1,.4.124,2.954,2.954,0,0,0-.408-.123m29.171,20.787c-.545.235-1.016.439-1.333.605a2.363,2.363,0,0,0-.934.905,1.259,1.259,0,0,1-.212.269,2.779,2.779,0,0,1-.962-.018c-.182-.024-.368-.047-.556-.055a1.818,1.818,0,0,1,.113-.856.524.524,0,0,0-.977-.379,2.834,2.834,0,0,0-.161,1.452,4.77,4.77,0,0,1-2.206-.332,2.2,2.2,0,0,1,.084-.509.524.524,0,1,0-1-.31,3.045,3.045,0,0,0-.133.786,3.014,3.014,0,0,1-.837-.018c-.008-.02-.016-.041-.026-.062a2.312,2.312,0,0,0-.309-.54,2.093,2.093,0,0,1,.142-1.647,3.18,3.18,0,0,1,1.884-1.642c.263-.066.48.024.947.262a3.12,3.12,0,0,0,2.095.436c1.8-.346,1.886-1.444,2.469-2.412.752-1.25,1.408-2.178,1.067-3.292-.072-.236-.141-.465-.2-.681-.5-2.019-4.536-2.778-12.824-3.629a35.958,35.958,0,0,1-4.16-.543c-.288-.092-.571-.177-.847-.261-1.88-.572-3.239-.986-4.2-2.537a.883.883,0,0,0-.44-.363l-1.224-.459c-.2-.214-.425-.5-.635-.768a.877.877,0,0,0-.256-.592A3.951,3.951,0,0,1,102.735,63a2.586,2.586,0,0,0-2.92-2.274c-5.044,0-9.673,2.211-14.15,4.35l-.052.024a.891.891,0,0,0-.136.082.858.858,0,0,0-.251.072c-10.491,4.927-16.973,5.92-21.854,4.116a23.2,23.2,0,0,0,3.735-3.4c1.45-1.58,2.055-3.182,4.92-2.894a5.587,5.587,0,0,1,.906.219c.488,0-.207-.787-.792-.969-3.595-1.113-4.776.748-6.338,2.447a25.96,25.96,0,0,1-4.864,4.668.878.878,0,0,0-.49.111,35.3,35.3,0,0,1-4.823,2.025c-.6.222-.94,1-1.456,1.416-.111.044-.219.088-.333.132a36.292,36.292,0,0,0-5.759,2.585A24.084,24.084,0,0,0,43.5,78.68,6.015,6.015,0,0,0,39.576,79.8c-.87.695-1.221,2.5-1.447,3.731a21.068,21.068,0,0,1-2.393.194,3.174,3.174,0,0,0-1.435.165c-.579.319-.717.391-2.357-.273a2.007,2.007,0,0,1,.168-.965.524.524,0,0,0-.949-.446,2.987,2.987,0,0,0-.271,1.416,2.582,2.582,0,0,1-2.161-.065c-.084-.051-.168-.106-.255-.166a6.9,6.9,0,0,1,.133-1.013.524.524,0,0,0-1.017-.253,7.521,7.521,0,0,0-.158,1.15.862.862,0,0,1-.375.06c-.007-.021-.011-.015-.039-.063a2.5,2.5,0,0,1-.266-2.252,4.217,4.217,0,0,1,1.91-2.045,1.562,1.562,0,0,1,.36.132c.094.053.188.109.293.174.013.008.031.011.044.02l.058.034c1.044.649,1.594.4,4.381-.614.02-.007,2.149-1.364,3.816-2.562.338-.231.632-.45.879-.651a4.4,4.4,0,0,0,1.063-1c1.231-1.122,9.758-8.887,13.982-12.581.805-.7,1.814-1.509,2.7-2.222,2.539-2.034,2.286-3.362,2.143-3.068-.278.3-1.625,1.45-2.506,2.155-.9.724-2.669,1.077-3.5,1.8-.5.435-1.058.93-1.656,1.461a10.387,10.387,0,0,1-4.3-3.765L45.385,54.93A12.677,12.677,0,0,1,45.42,52.5c.076-.742.349-2.535-.6-2.269-.054.743-1.181,7.861-.773,8.327,0,0-12.817-2.331-13.516-4.195-.165-.441-5.01-3.008-5.654-3.352-.308-.649-.841-1.8-1.121-2.531a.522.522,0,0,0,.008-.334,1.742,1.742,0,0,1,.279-1.547.524.524,0,0,0-.385-.806c-.031,0-3.769-.528-4.457-2.82-.083-.277-.342.208-.259.486A5.1,5.1,0,0,0,22.824,46.7a2.725,2.725,0,0,0-.172.815.853.853,0,0,0-.241.069l-.116.054a4.677,4.677,0,0,1-2.843-.176,3.856,3.856,0,0,1-.472-.268c-.3-.976-.61-2.456.215-2.34.287.04-.088-.567-.367-.644a.525.525,0,0,0-.644.367,6.07,6.07,0,0,0-.181,1.3.5.5,0,0,0-.171.018,4.88,4.88,0,0,1-2.62-.127c-.145-.118-.741-.433-.887-.841a.59.59,0,0,1,.063-.637,14.7,14.7,0,0,0,1.361.777.518.518,0,0,0,.232.054.524.524,0,0,0,.234-.993c-.009,0-2.415-.657-1.774-2,0,0,1.81.965,2.78,1.39a.516.516,0,0,0,.21.044.524.524,0,0,0,.211-1c-1.267-.556-3.055-2-1.6-2.8l2.378.6c.059.016,5.971,1.7,8.977,6.462a.89.89,0,0,0,.276.277,21.148,21.148,0,0,0,5.144,2.228.888.888,0,0,0,.587-.047.837.837,0,0,1,.162-.048c.4.219,1.974,3.151,3.022,2.919,1.12-.249,6.408,3.9,6.408,3.9-.044-.061-.082-.124-.122-.186.154.083.409.093.238-.061-2.42-2.2.76-9.619,3.1-14.5a2.81,2.81,0,0,0,1.491-.585,2.411,2.411,0,0,1,.558-.468c.505-.565,1.146-.332,1.5.541a2.025,2.025,0,0,0-.405-1.419,1.3,1.3,0,0,0-.972-.545,2.38,2.38,0,0,0-1.683.922c-.387.4-3.428.337-4.193.228a8.391,8.391,0,0,0-4.422.225c-.089-1.068-.368-2.895-.005-3.343.479-.307,3.493.134,6.179.39a.7.7,0,0,0,.747-.537c.119-.507.094-3.99-.343-3.99-.786,0-4.29-.246-4.29-.246a10.033,10.033,0,0,1-2.315-.112,1.887,1.887,0,0,1,.056-1.124.517.517,0,0,0,.02-.078l.336-1.829a.691.691,0,0,0,0-.125c.113-.022,1.645-1.408,1.936-1.51.4-.141,1.123-.038,1.687-.7,1.072.092,2.239.219,3.326.363a.7.7,0,0,0,.655-.278,6.811,6.811,0,0,1,2.258-1.919,10.328,10.328,0,0,1,4.12-.163.7.7,0,0,0,.708-.356,2.188,2.188,0,0,1,1.844-.907c2.7-.182,7.25,1.858,9.916,5.469,2.99,4.05,2.667,10.648,2.369,13.4-.223,1.094-.834,3.979-1.549,6.424-.65,1.715-1.433,3.724-1.995,4.85a23.349,23.349,0,0,0-1.966,4.872.525.525,0,0,0,.379.638.5.5,0,0,0,.129.016.523.523,0,0,0,.507-.4c.024-.093.059-.223.1-.38a9.042,9.042,0,0,0,2.85,2.573c.117-.156-1.872-2.573-2.538-3.615.126-.4.278-.866.452-1.372a9.047,9.047,0,0,0,2.871,2.6A42.678,42.678,0,0,0,64.03,55.2c.164-.446.342-.912.533-1.389A9.535,9.535,0,0,0,67.4,56.3a38.115,38.115,0,0,0-2.412-3.5c1.9-4.413,4.825-9.175,8.065-7.306a27.172,27.172,0,0,0,13.541,3.228c.133,0,.266-.015.4-.025a30.726,30.726,0,0,0-5.25,3.342c-.208.2.2.417.305.32.922-.885,8.617-5.293,16.959-7.031a.514.514,0,0,0,.285-.168c2.228-.51,4.186-.713,5.55-.116a.823.823,0,0,0,.359.073c7.362-.04,12.029-1.206,13.872-3.467a3.615,3.615,0,0,0,.783-3.073,3.226,3.226,0,0,0-1.509-2.2c-2.75-1.689-8.958-.633-21.341,2.818A74.9,74.9,0,0,1,83.1,41.029c-10.5.171-11.021-2.481-11.55-4.431a16.933,16.933,0,0,0,2.94,2.217c.366-.542-4.455-5.363-4.455-5.363s4.587,3.076,4.646,2.942c.349-.786-3.19-3.145-3.627-3.612,0,0,4.882,2.725,5.025,2.563.539-.612-3.19-2.65-3.19-2.65s6.058-.524,10.312,6.233c.027.157.843,2.6,17.091-1.622,17.074-4.437,24.021-4.442,25.378-.3a5.748,5.748,0,0,1-1.044,5.347c-1.427,1.943-5.345,5.184-15.527,5.06a.857.857,0,0,0-.738.38.886.886,0,0,0-.1.825A5.258,5.258,0,0,0,110,51.147c.671.461,1.276.864,1.829,1.231,3.118,2.079,4.408,2.94,6.552,6.763.962,1.823,4.445,5.933,9.074,6.992a4.983,4.983,0,0,1,1.668.656,29.142,29.142,0,0,0,1.754,5.62c.316.81.59,1.51.691,1.917.148.594.526,1.7.925,2.878.353,1.044.722,2.121.865,2.668-.316.66-3.068,1.847-3.984,2.243" transform="translate(-9.15 -16.752)" fill="#fff"/>
        <g id="Group_202" data-name="Group 202" transform="translate(0 72.934)">
          <g id="Group_201" data-name="Group 201">
            <g id="Group_200" data-name="Group 200" clip-path="url(#clip-path-22)">
              <rect id="Rectangle_91" data-name="Rectangle 91" width="70.588" height="2.066" transform="translate(0 0)" fill="#fdd700"/>
            </g>
          </g>
        </g>
      </g>
    </g>
  </g>
</svg>
